<!-- Generator: Adobe Illustrator 22.1.0, SVG Export Plug-In  -->
<svg version="1.1"
	 xmlns="http://www.w3.org/2000/svg" xmlns:xlink="http://www.w3.org/1999/xlink" xmlns:a="http://ns.adobe.com/AdobeSVGViewerExtensions/3.0/"
	 x="0px" y="0px" width="100.5px" height="101.1px" viewBox="0 0 100.5 101.1" style="enable-background:new 0 0 100.5 101.1;"
	 xml:space="preserve">
<style type="text/css">
	.st0{fill:url(#XMLID_2_);}
	.st1{fill:#FCFCFC;}
	.st2{fill:url(#SVGID_1_);}
	.st3{fill:url(#XMLID_3_);}
	.st4{fill:url(#SVGID_2_);}
</style>
<defs>
</defs>
<linearGradient id="XMLID_2_" gradientUnits="userSpaceOnUse" x1="11.8702" y1="9.0935" x2="88.4676" y2="92.4781">
	<stop  offset="0" style="stop-color:#FD9252"/>
	<stop  offset="0.2401" style="stop-color:#FD7959"/>
	<stop  offset="0.7484" style="stop-color:#FC386B"/>
	<stop  offset="1" style="stop-color:#FC1674"/>
</linearGradient>
<path id="XMLID_1_" class="st0" d="M80.1,96.5c-7.2,2.3-17.6,4.6-30.2,4.5c-9.9-0.1-18.3-1.6-24.7-3.3c-3.5-1.1-6.4-2.2-8.4-3.1
	c-3.1-1.3-4.6-2-6.2-3.4c-2.2-1.9-3.3-4-4.4-6.3c-1.1-2.2-2.6-5.7-3.3-10.3C1.4,68.4,0.1,60.3,0,51c-0.1-7.4,0.7-14,1.6-19.4
	c0.8-5.7,2.4-10.1,3.7-13c1.5-3.3,2.6-5.9,5.3-8.3c2.1-2,4.1-2.9,7.5-4.5c3.5-1.6,6.6-2.7,8.8-3.3C33.1,1.1,41,0,50.1,0
	C59.6,0,67.7,1.3,74,2.7c3.5,1.2,6.3,2.4,8.4,3.3c5.3,2.3,6.6,3.5,7.4,4.3c1.6,1.6,2.7,3.4,3.5,4.8c1.1,1.8,1.8,3.5,2.3,4.7
	c2.4,7.3,4.9,18.1,4.9,31.1c0,10.2-1.6,18.9-3.3,25.4c-0.4,2-1.1,4.9-2.7,8c-0.9,1.8-2.2,4.4-4.7,6.9C86.4,94.5,82.6,95.9,80.1,96.5
	z"/>
<g>
	<g id="Location_6_">
		<path class="st1" d="M50.2,25.6c-13.3,0-18,10.1-18,16.4c0,6.8,1.2,9.2,16.3,32.5c0.8,1.3,2.6,1.3,3.5,0
			C67,51.2,68.2,48.8,68.2,42C68.2,35.7,63.5,25.6,50.2,25.6z M50.2,48.5c-3.4,0-6.2-2.8-6.2-6.2s2.8-6.2,6.2-6.2s6.2,2.8,6.2,6.2
			S53.7,48.5,50.2,48.5z"/>
	</g>
	<g id="Location_3_">
		<g>
			<linearGradient id="SVGID_1_" gradientUnits="userSpaceOnUse" x1="36.492" y1="55.9195" x2="69.198" y2="40.6684">
				<stop  offset="0" style="stop-color:#FD6957"/>
				<stop  offset="5.764490e-02" style="stop-color:#FD8374"/>
				<stop  offset="0.143" style="stop-color:#FEA499"/>
				<stop  offset="0.2358" style="stop-color:#FEC0B9"/>
				<stop  offset="0.3359" style="stop-color:#FED7D3"/>
				<stop  offset="0.4464" style="stop-color:#FFE9E6"/>
				<stop  offset="0.5725" style="stop-color:#FFF6F4"/>
				<stop  offset="0.728" style="stop-color:#FFFDFD"/>
				<stop  offset="1" style="stop-color:#FFFFFF"/>
			</linearGradient>
			<path class="st2" d="M50.2,25.6c-13.3,0-18,10.1-18,16.4c0,6.8,1.2,9.2,16.3,32.5c0.8,1.3,2.6,1.3,3.5,0
				C67,51.2,68.2,48.8,68.2,42C68.2,35.7,63.5,25.6,50.2,25.6z M50.2,48.5c-3.4,0-6.2-2.8-6.2-6.2s2.8-6.2,6.2-6.2s6.2,2.8,6.2,6.2
				S53.7,48.5,50.2,48.5z"/>
		</g>
	</g>
	<g>
		<path class="st1" d="M44.6,44.8c-3-5.5-3.4-8-3.4-11.8c0-1.8,0.4-4,1.3-6.1C35,30,32.2,37.1,32.2,42c0,6.8,1.2,9.2,16.3,32.5
			c0.8,1.3,2.6,1.3,3.5,0c2.2-3.3,4-6.2,5.6-8.8c0-0.1-0.1-0.1-0.1-0.2C51.2,56,47.4,49.9,45,45.6"/>
	</g>
</g>
</svg>
